<mxfile host="app.diagrams.net" modified="2022-01-22T10:56:13.921Z" agent="5.0 (Windows NT 10.0; Win64; x64) AppleWebKit/537.36 (KHTML, like Gecko) Chrome/97.0.4692.99 Safari/537.36" etag="lwtWYfJQ6_WLsy6l9Rl-" version="15.9.4" type="github">
  <diagram id="D9a77S43H5TM56BBEAoG" name="Page-1">
    <mxGraphModel dx="1422" dy="754" grid="1" gridSize="10" guides="1" tooltips="1" connect="1" arrows="1" fold="1" page="1" pageScale="1" pageWidth="827" pageHeight="1169" math="0" shadow="0">
      <root>
        <mxCell id="0" />
        <mxCell id="1" parent="0" />
        <mxCell id="e9i4VH5Fv7IkmH5WwM8w-2" value="" style="rounded=0;whiteSpace=wrap;html=1;" vertex="1" parent="1">
          <mxGeometry y="170" width="830" height="510" as="geometry" />
        </mxCell>
        <mxCell id="e9i4VH5Fv7IkmH5WwM8w-3" value="Vscode" style="rounded=1;whiteSpace=wrap;html=1;fillColor=#1ba1e2;strokeColor=#006EAF;fontSize=18;fontStyle=1;fontColor=#ffffff;" vertex="1" parent="1">
          <mxGeometry x="20" y="590" width="800" height="70" as="geometry" />
        </mxCell>
        <mxCell id="e9i4VH5Fv7IkmH5WwM8w-4" value="Vscode Extension API" style="rounded=1;whiteSpace=wrap;html=1;fontSize=18;fillColor=#d80073;strokeColor=#A50040;fontColor=#ffffff;" vertex="1" parent="1">
          <mxGeometry x="20" y="510" width="460" height="60" as="geometry" />
        </mxCell>
        <mxCell id="e9i4VH5Fv7IkmH5WwM8w-5" value="Webview API" style="rounded=1;whiteSpace=wrap;html=1;fontSize=18;fillColor=#a20025;strokeColor=#6F0000;fontColor=#ffffff;" vertex="1" parent="1">
          <mxGeometry x="510" y="510" width="310" height="60" as="geometry" />
        </mxCell>
        <mxCell id="e9i4VH5Fv7IkmH5WwM8w-6" value="typescript" style="rounded=1;whiteSpace=wrap;html=1;fontSize=18;fillColor=#cce5ff;strokeColor=#36393d;" vertex="1" parent="1">
          <mxGeometry x="20" y="430" width="230" height="60" as="geometry" />
        </mxCell>
        <mxCell id="e9i4VH5Fv7IkmH5WwM8w-7" value="Vue" style="rounded=1;whiteSpace=wrap;html=1;fontSize=18;fillColor=#60a917;fontColor=#ffffff;strokeColor=#2D7600;" vertex="1" parent="1">
          <mxGeometry x="510" y="430" width="160" height="60" as="geometry" />
        </mxCell>
        <mxCell id="e9i4VH5Fv7IkmH5WwM8w-8" value="Element UI" style="rounded=1;whiteSpace=wrap;html=1;fontSize=18;fillColor=#fa6800;fontColor=#000000;strokeColor=#C73500;" vertex="1" parent="1">
          <mxGeometry x="680" y="430" width="140" height="60" as="geometry" />
        </mxCell>
        <mxCell id="e9i4VH5Fv7IkmH5WwM8w-9" value="Javacsript" style="rounded=1;whiteSpace=wrap;html=1;fontSize=18;fillColor=#ffcccc;strokeColor=#36393d;" vertex="1" parent="1">
          <mxGeometry x="260" y="430" width="220" height="60" as="geometry" />
        </mxCell>
        <mxCell id="e9i4VH5Fv7IkmH5WwM8w-11" value="Smart 配置向导" style="rounded=1;whiteSpace=wrap;html=1;fontSize=18;fillColor=#f8cecc;strokeColor=#b85450;gradientColor=#ea6b66;" vertex="1" parent="1">
          <mxGeometry x="510" y="350" width="310" height="60" as="geometry" />
        </mxCell>
        <mxCell id="e9i4VH5Fv7IkmH5WwM8w-12" value="工具配置" style="rounded=1;whiteSpace=wrap;html=1;fontSize=18;fillColor=#dae8fc;gradientColor=#7ea6e0;strokeColor=#6c8ebf;" vertex="1" parent="1">
          <mxGeometry x="510" y="270" width="150" height="60" as="geometry" />
        </mxCell>
        <mxCell id="e9i4VH5Fv7IkmH5WwM8w-13" value="环境配置" style="rounded=1;whiteSpace=wrap;html=1;fontSize=18;fillColor=#d5e8d4;gradientColor=#97d077;strokeColor=#82b366;" vertex="1" parent="1">
          <mxGeometry x="680" y="270" width="135" height="60" as="geometry" />
        </mxCell>
        <mxCell id="e9i4VH5Fv7IkmH5WwM8w-14" value="终端" style="rounded=1;whiteSpace=wrap;html=1;fontSize=18;fillColor=#fff2cc;gradientColor=#ffd966;strokeColor=#d6b656;" vertex="1" parent="1">
          <mxGeometry x="309" y="350" width="50" height="60" as="geometry" />
        </mxCell>
        <mxCell id="e9i4VH5Fv7IkmH5WwM8w-15" value="日志" style="rounded=1;whiteSpace=wrap;html=1;fontSize=18;fillColor=#f8cecc;gradientColor=#ea6b66;strokeColor=#b85450;" vertex="1" parent="1">
          <mxGeometry x="370" y="350" width="50" height="60" as="geometry" />
        </mxCell>
        <mxCell id="e9i4VH5Fv7IkmH5WwM8w-16" value="统计" style="rounded=1;whiteSpace=wrap;html=1;fontSize=18;fillColor=#e6d0de;gradientColor=#d5739d;strokeColor=#996185;" vertex="1" parent="1">
          <mxGeometry x="430" y="350" width="50" height="60" as="geometry" />
        </mxCell>
        <mxCell id="e9i4VH5Fv7IkmH5WwM8w-17" value="监听器" style="rounded=1;whiteSpace=wrap;html=1;fontSize=18;fillColor=#dae8fc;gradientColor=#7ea6e0;strokeColor=#6c8ebf;" vertex="1" parent="1">
          <mxGeometry x="20" y="350" width="80" height="60" as="geometry" />
        </mxCell>
        <mxCell id="e9i4VH5Fv7IkmH5WwM8w-18" value="状态栏" style="rounded=1;whiteSpace=wrap;html=1;fontSize=18;fillColor=#d5e8d4;gradientColor=#97d077;strokeColor=#82b366;" vertex="1" parent="1">
          <mxGeometry x="110" y="350" width="80" height="60" as="geometry" />
        </mxCell>
        <mxCell id="e9i4VH5Fv7IkmH5WwM8w-19" value="设计模式" style="rounded=1;whiteSpace=wrap;html=1;fontSize=18;fillColor=#ffcd28;gradientColor=#ffa500;strokeColor=#d79b00;" vertex="1" parent="1">
          <mxGeometry x="204" y="350" width="90" height="60" as="geometry" />
        </mxCell>
        <mxCell id="e9i4VH5Fv7IkmH5WwM8w-20" value="RT-Smart 工程向导" style="rounded=1;whiteSpace=wrap;html=1;fontSize=18;fillColor=#f8cecc;gradientColor=#ea6b66;strokeColor=#b85450;" vertex="1" parent="1">
          <mxGeometry x="20" y="270" width="190" height="60" as="geometry" />
        </mxCell>
        <mxCell id="e9i4VH5Fv7IkmH5WwM8w-21" value="工具栏" style="rounded=1;whiteSpace=wrap;html=1;fontSize=18;fillColor=#dae8fc;gradientColor=#7ea6e0;strokeColor=#6c8ebf;" vertex="1" parent="1">
          <mxGeometry x="220" y="270" width="120" height="60" as="geometry" />
        </mxCell>
        <mxCell id="e9i4VH5Fv7IkmH5WwM8w-22" value="工程设置" style="rounded=1;whiteSpace=wrap;html=1;fontSize=18;fillColor=#fff2cc;gradientColor=#ffd966;strokeColor=#d6b656;" vertex="1" parent="1">
          <mxGeometry x="355" y="270" width="120" height="60" as="geometry" />
        </mxCell>
        <mxCell id="e9i4VH5Fv7IkmH5WwM8w-23" value="用户" style="rounded=1;whiteSpace=wrap;html=1;fontSize=18;fillColor=#f0a30a;fontColor=#000000;strokeColor=#BD7000;" vertex="1" parent="1">
          <mxGeometry x="20" y="190" width="790" height="60" as="geometry" />
        </mxCell>
      </root>
    </mxGraphModel>
  </diagram>
</mxfile>
